<svg xmlns="http://www.w3.org/2000/svg" xmlns:xlink="http://www.w3.org/1999/xlink" version="1.1" preserveAspectRatio="none" viewBox="0 0 800 600" width="1600" height="1200" style="background:#ff4c1b;">
      <path transform="translate(0, 0)" fill="#ffffff" d="M411.4377589951323,122.64170439353893L420.53985186833813,123.69474387711006L429.5194754406399,125.32354589514135L438.3503862920775,127.51295880164062L447.006341002691,130.24783095061565L455.46109615252044,133.51301069607428L463.68840832160595,137.29334639202423L471.6620340899874,141.57368639247335L479.3557300377049,146.33887905142942L486.7432527447986,151.57377272290023L493.7983587913084,157.26321576089356L500.4948047572744,163.39205651941725L506.8063472227366,169.94514335247905L512.706742767735,176.9073246140868L518.1697479723097,184.26344865824825L523.1691194165007,191.99836383897122L527.678613680348,200.0969185102635L531.6719873438918,208.54396102613288L535.122996987172,217.3243397405872L538.0053991902284,226.42290300763418L540.2929505331016,235.82449918128165L541.9594075958312,245.51397661553744L542.9785269584572,255.4761836644093L543.32406520102,265.695968681905L543.00645162992,275.24692806617355L542.0636597151174,284.6806165662375L540.5107629999909,293.9709260391635L538.3628350279187,303.09174834201815L535.6349493422794,312.01697533186825L532.3421794864514,320.7204988657804L528.4995990038133,329.1762108008214L524.1222814377433,337.3580029940578L519.2253003316199,345.2397673025564L513.8237292288217,352.7953955833839L507.93264167272696,359.99877969360693L501.56711120671423,366.8238114902922L494.742211374162,373.24438283050637L487.4730157184487,379.23438557131624L479.7745977829527,384.7677115697884L471.66203111105256,389.81825268298945L462.6386684279079,394.6289000792091L453.5015842660275,398.7274201270387L444.27702204537167,402.1289644724706L434.99122518590025,404.8486847614968L425.67043710757315,406.9017326401096L416.34090123035037,408.3032597543013L407.02886097419184,409.06841775006393L397.7605597590576,409.2123582733898L388.5622410049076,408.75023297027104L379.46014813170177,407.6971934866999L370.4805245594001,406.06839146866855L361.64961370796254,403.8789785621693L352.99365899734903,401.14410641319427L344.5389038475196,397.8789266677357L336.31159167843407,394.09859097178577L328.3379659100526,389.8182509713366L320.6442699623351,385.05305831238053L313.2567472552414,379.81816464090974L306.20164120873164,374.1287216029164L299.50519524276564,367.99988084439275L293.19365277730344,361.44679401133095L287.29325723230505,354.48461274972317L281.83025202773035,347.1284887055617L276.83088058353934,339.39357352483876L272.321386319692,331.2950188535465L268.3280126561483,322.8479763376771L264.8770030128681,314.0675976232228L261.9946008098116,304.9690343561758L259.70704946693843,295.56743818252835L258.04059240420884,285.8779607482726L257.0214730415827,275.91575369940074L256.67593479901996,265.695968681905L256.99354837012,256.1450092976365L257.9363402849225,246.7113207975725L259.489237000049,237.42101132464654L261.6371649721212,228.30018902179188L264.36505065776043,219.37496203194178L267.6578205135885,210.6714384980296L271.50040099622674,202.21572656298864L275.87771856229676,194.03393436975216L280.7746996684201,186.1521700612535L286.17627077121836,178.59654178042604L292.06735832731306,171.39315767020298L298.4328887933258,164.56812587351772L305.257788625878,158.14755453330355L312.5269842815913,152.15755179249373L320.2254022170872,146.6242257940216L328.3379688889874,141.57368468082052L337.36133157213214,136.76303728460084L346.4984157340125,132.6645172367712L355.7229779546683,129.26297289133936L365.0087748141397,126.54325260231313L374.3295628924668,124.49020472370032L383.6590987696896,123.08867760950868L392.97113902584806,122.32351961374604L402.2394402409823,122.17957909042019ZM397.48579678378997,195.600733691595L390.10048428378997,196.253702441595L383.16329678379,197.34198369159498L376.67423428378993,198.86557744159498L370.63329678378994,200.824483691595L365.04048428378997,203.21870244159498L359.89579678378993,206.04823369159496L355.19923428378996,209.31307744159494L351.00626553379,212.94073369159497L347.37235928378993,216.85870244159497L344.2975155337899,221.066983691595L341.78173428379,225.565577441595L339.82501553378995,230.35448369159502L338.42735928379,235.43370244159502L337.58876553379,240.80323369159504L337.30923428379,246.46307744159503L337.55673428379,252.24245244159502L338.29923428379,257.560577441595L339.53673428379,262.417452441595L341.26923428378996,266.81307744159494L343.44548428379005,270.8330774415949L346.01423428378996,274.5630774415949L348.97548428379,278.0030774415949L352.32923428378996,281.15307744159486L356.04985928378994,284.04682744159487L360.11173428379,286.7180774415949L364.51485928379,289.1668274415949L369.25923428378997,291.39307744159487L374.31548428378994,293.49995244159487L379.64423428378996,295.5905774415949L385.24548428379,297.664952441595L391.11923428379,299.723077441595L402.58923428378995,303.54307744159496L406.32735928379,304.92057744159496L409.6217342837899,306.31307744159494L412.47235928378996,307.7205774415949L414.87923428378997,309.14307744159487L416.79110928379,310.74057744159495L418.15673428379,312.66307744159496L418.9761092837899,314.91057744159497L419.24923428379,317.483077441595L418.90798428379003,320.1280774415951L417.88423428378997,322.603077441595L416.17798428379,324.90807744159497L413.78923428378994,327.04307744159496L412.3003280337899,328.00167119159494L410.5636092837899,328.832452441595L408.5790780337899,329.535421191595L406.34673428378994,330.11057744159496L403.86657803378995,330.5579211915949L401.13860928378995,330.8774524415949L398.16282803378994,331.0691711915949L394.93923428379,331.1330774415949L388.51235928379,330.8599524415948L382.34173428378995,330.0405774415949L376.42735928378994,328.6749524415949L370.76923428378996,326.763077441595L365.44860928379,324.4755774415949L360.55673428379,321.9830774415949L356.09360928379,319.28557744159485L352.05923428379,316.3830774415949L349.37610928378996,318.0499524415949L346.79673428378993,320.0405774415949L344.32110928378995,322.35495244159495L341.94923428378996,324.993077441595L339.91923428379,327.938077441595L338.46923428379,331.173077441595L337.59923428379,334.698077441595L337.30923428379,338.513077441595L337.59048428379,342.22682744159493L338.43423428379,345.7180774415949L339.84048428379,348.9868274415949L341.80923428379,352.03307744159497L344.28610928379,354.84870244159487L347.20673428378996,357.42557744159484L350.57110928378995,359.76370244159483L354.37923428378997,361.8630774415949L358.5798592837899,363.7237024415949L363.1217342837899,365.34557744159497L368.00485928379,366.7287024415949L373.22923428379,367.8730774415949L378.73110928379,368.76995244159497L384.45673428378996,369.410577441595L390.40610928378993,369.79495244159506L396.57923428378996,369.92307744159507L405.18782803378997,369.6990149415951L413.25860928378995,369.02682744159506L420.79157803378996,367.9065149415951L427.78673428379,366.33807744159503L434.24407803379,364.32151494159507L440.16360928379,361.856827441595L445.54532803379,358.944014941595L450.38923428378996,355.5830774415949L454.67829678378996,351.8593274415949L458.39548428379,347.85807744159496L461.54079678379003,343.57932744159496L464.11423428379,339.023077441595L466.11579678378996,334.18932744159497L467.54548428378996,329.078077441595L468.40329678379,323.68932744159497L468.68923428379,318.023077441595L468.47376553378996,312.703546191595L467.82735928379,307.669952441595L466.75001553379,302.922296191595L465.24173428379,298.46057744159503L463.30251553379003,294.28479619159503L460.93235928379,290.394952441595L458.13126553379004,286.79104619159506L454.89923428378995,283.473077441595L451.26376553379,280.368389941595L447.2573592837899,277.404327441595L442.88001553378996,274.580889941595L438.13173428378997,271.898077441595L433.01251553379,269.35588994159497L427.52235928378997,266.95432744159496L421.66126553379,264.69338994159494L415.42923428379,262.57307744159493L400.94923428378996,257.93307744159506L397.62110928378996,256.81307744159506L394.73673428378993,255.64307744159495L392.29610928379,254.4230774415949L390.29923428379,253.15307744159486L388.74610928379,251.75995244159486L387.63673428379,250.18057744159495L386.97110928379,248.414952441595L386.74923428379,246.46307744159503L387.10735928378995,243.97870244159503L388.18173428379,241.715577441595L389.97235928379,239.67370244159503L392.47923428379,237.85307744159502L394.01657803379,237.053858691595L395.75860928378995,236.36120244159497L397.7053280337899,235.77510869159497L399.85673428378993,235.29557744159496L402.21282803378995,234.92260869159492L404.77360928378994,234.65620244159493L407.5390780337899,234.49635869159493L410.50923428378997,234.44307744159494L416.3998592837899,234.62245244159496L422.0517342837899,235.16057744159497L427.4648592837899,236.057452441595L432.63923428378996,237.31307744159494L437.43360928379,238.80370244159494L441.71673428379,240.41557744159493L445.48860928379,242.14870244159496L448.74923428379,244.003077441595L450.98423428379,242.133702441595L453.04923428378993,240.075577441595L454.94423428379,237.828702441595L456.66923428379,235.39307744159498L458.10423428379,232.73995244159497L459.12923428378997,229.83057744159495L459.74423428379,226.66495244159495L459.94923428378996,223.243077441595L459.69298428379,219.80370244159502L458.92423428379,216.58557744159498L457.64298428378993,213.588702441595L455.84923428378994,210.81307744159494L453.60735928378995,208.26807744159498L450.97173428378994,205.96307744159498L447.94235928379,203.89807744159498L444.51923428378996,202.07307744159493L440.71985928378996,200.47870244159498L436.56173428379,199.10557744159496L432.04485928378995,197.953702441595L427.16923428379,197.02307744159498L422.01610928379,196.30557744159498L416.65673428379,195.79307744159496L411.09110928379,195.48557744159498L405.31923428378997,195.383077441595ZM483.31443604996247,160.30088424616503L481.04289220779265,160.7216393544891L478.78839559895994,161.46718787976508L476.57651707347,162.55229315912712L474.65079482907856,163.84137092985182L472.934183631191,165.35293517155844L471.44137071524347,167.06154684624892L470.187043316672,168.94176691592506L469.18588867091273,170.96815634258886L468.45259401340195,173.11527608824218L468.0018465795756,175.35768711488697L467.84833360486994,177.66995038452507L468.0145441299067,180.12804601736565L468.49612847168004,182.45327161599863L469.2675157801842,184.63086384328983L470.30313520541364,186.64605936210506L471.5774158973626,188.48409483531017L473.06478700602537,190.130206925771L474.73967768139636,191.56963229635335L476.5765170734699,192.787607609923L478.5497343322403,193.76936952934582L480.6337586077019,194.5001547174876L482.8030190498491,194.9651998372142L485.03194480867614,195.14974155139143L487.29496503417744,195.0390165228851L489.56650887634726,194.61826141456103L491.82100548517997,193.87271288928505L494.03288401066993,192.78760760992301L495.95860625506134,191.4985298391983L497.6752174529489,189.9869655974917L499.16803036889644,188.27835392280122L500.42235776746793,186.39813385312507L501.4235124132272,184.37174442646128L502.15680707073795,182.22462468080795L502.6075545045643,179.98221365416316L502.76106747926997,177.66995038452507L502.5948569542332,175.21185475168448L502.11327261245987,172.8866291530515L501.3418853039557,170.70903692576027L500.30626587872626,168.693841406945L499.0319851867773,166.8558059337399L497.54461407811453,165.20969384327907L495.86972340274355,163.77026847269676L494.03288401067,162.55229315912712L492.0596667518996,161.5705312397043L489.975642476438,160.83974605156254L487.8063820342908,160.37470093183595L485.57745627546376,160.1901592176587Z"></path></svg>